<?xml version="1.0" encoding="UTF-8" standalone="no"?>
<svg
xmlns:svg="http://www.w3.org/2000/svg"
xmlns="http://www.w3.org/2000/svg"
width="569"
height="200"
version="1.1">
<path
style="fill:#00b6a9"
d="m 157,169 c -3,0 -5,1 -7,1 0,0 0,0 0,0 -1,1 -2,2 -4,3 -1,1 -2,3 -2,4 -1,2 -2,5 -2,8 0,4 2,8 4,11 3,2 7,4 11,4 4,0 8,-2 10,-4 3,-3 4,-7 4,-11 0,-5 -1,-9 -4,-12 -2,-2 -6,-4 -10,-4 z m 0,7 c 2,0 3,1 4,2 1,2 2,4 2,6 0,3 -1,5 -2,7 -1,1 -2,2 -4,2 -2,0 -3,-1 -5,-2 -1,-2 -1,-4 -1,-6 0,-3 0,-5 1,-7 1,-1 3,-2 5,-2 z"
/>
<path
style="fill:#ce0000"
d="M 31.6,-0.13 C 14.1,-0.13 0,14 0,31.5 L 0,124 c 0,17 14.1,31 31.6,31 l 467.4,0 c 0,0 1,0 2,0 l 68,40 -39,-74 0,-89.5 C 530,14 516,-0.13 499,-0.13 l -467.4,0 z"
/>
<path
d="m 28.8,26.3 c 0,35.5 0,71.7 0,102.7 9.2,0 18.4,0 27.6,0 0,-14 0,-28 0,-41.2 l 28.5,0 c 0,13.2 0,27.2 0,41.2 9.2,0 18.1,0 27.1,0 0,-35.7 0,-72.2 0,-102.7 -9,0 -17.9,0 -27.1,0 0,12.3 0,24.6 0,37 l -28.5,0 c 0,-12.4 0,-24.7 0,-37 -9.7,0 -18.5,0 -27.6,0 z"
style="fill:#ffffff"
/>
<path
style="fill:#ffffff"
d="M 152,26.3 C 138,61.9 124,98 112,129 c 10,0 20,0 29,0 3,-7 6,-14 8,-22 l 32,0 c 2,8 5,15 8,22 10,0 20,0 30,0 -15,-36.2 -29,-71.6 -41,-102.7 -9,0 -18,0 -26,0 z m 13,38.7 6,18 -13,0 z"
/>
<path
style="fill:#ffffff"
d="m 207,26.3 c 13,36.1 25,71.7 37,102.7 9,0 18,0 26,0 13,-35.8 26,-72.2 37,-102.7 -10,0 -20,0 -30,0 -6,20.1 -13,40.2 -20,60.2 -7,-20 -13,-40.1 -20,-60.2 -10,0 -20,0 -30,0 z"
/>
<path
style="fill:#ffffff"
d="m 352,24.7 c -8,0 -16,1.3 -22,4.1 -5,2 -10,5.2 -14,9.4 -4,4.1 -7,8.9 -9,14.1 l 0,0 c -3,7.2 -5,15.8 -5,25.8 0,15.7 5,28.9 14,37.9 9,10 21,14 36,14 15,0 27,-4 36,-14 9,-9 14,-22.4 14,-38.3 0,-16.1 -5,-29.3 -14,-38.8 -9,-9.4 -21,-14.2 -36,-14.2 z m 0,24.8 c 7,0 12,2.1 16,6.5 3,4.3 6,11.1 6,21.2 0,10.3 -3,17.3 -7,21.8 -4,4 -8,7 -15,7 -6,0 -11,-3 -15,-7 -4,-4.7 -7,-11.6 -7,-21.5 0,-10.2 3,-17.1 6,-21.4 4,-4.4 9,-6.6 16,-6.6 z"
/>
<path
style="fill:#ffffff"
d="m 408,26.3 c 0,35.5 0,71.7 0,102.7 9,0 19,0 28,0 0,-11 0,-21 0,-31 l 10,-10.5 c 8,13.5 16,27.5 24,41.5 12,0 25,0 35,0 -13,-21 -26,-40.9 -40,-61.3 14,-13.8 27,-27.6 40,-41.4 -13,0 -25,0 -37,0 -11,11.6 -22,23.3 -32,34.9 0,-11.6 0,-23.3 0,-34.9 -9,0 -19,0 -28,0 z"
/>
<path
style="fill:#585858"
d="m 127,169 c -2,0 -4,1 -6,1 l 0,0 c -2,1 -3,2 -4,3 -1,1 -2,3 -3,4 -1,2 -1,5 -1,8 0,4 1,8 4,11 2,2 6,4 10,4 4,0 8,-1 11,-4 2,-3 4,-7 4,-11 0,-5 -2,-9 -4,-12 -3,-2 -7,-4 -11,-4 z m -99.5,1 c 0,10 0,21 0,29 3.5,0 7,0 10.5,0 3.6,0 5.7,0 6.8,0 1.6,0 3,0 4.2,-1 1.2,-1 2.1,-2 2.8,-4 0.7,-1 1,-2 1,-4 0,-2 -0.5,-3 -1.6,-5 -0.6,0 -1.4,-1 -2.3,-1 0.5,-1 1,-1 1.3,-2 0.8,-1 1.3,-3 1.3,-4 0,-2 -0.4,-3 -1.1,-4 -0.6,-1 -1.4,-2 -2.4,-3 -1,0 -2.1,-1 -3.3,-1 -1.2,0 -2.9,0 -5,0 -4.1,0 -8.1,0 -12.2,0 z m 23.6,0 c 3.6,6 7.3,11 11,17 0,4 0,8 0,12 2.6,0 5.3,0 7.9,0 0,-4 0,-8 0,-12 3.7,-6 7.3,-11 11,-17 -3.1,0 -6.2,0 -9.3,0 -1.8,3 -3.7,6 -5.5,9 -1.9,-3 -3.8,-6 -5.7,-9 -3.1,0 -6.3,0 -9.4,0 z m 38.9,0 c 0,2 0,4 0,7 3.8,0 7.6,0 11,0 -4,5 -8.3,10 -12.6,16 0,2 0,4 0,6 8.2,0 16.6,0 24.6,0 0,-2 0,-4 0,-7 -5,0 -9,0 -14.1,0 4.1,-5 9.1,-11 13.1,-16 0,-2 0,-4 0,-6 -7,0 -14.5,0 -22,0 z m 83,0 c 0,10 0,21 0,29 3,0 5,0 8,0 0,-3 0,-6 0,-10 l 2,0 c 3,0 5,0 6,0 1,-1 2,-1 3,-2 2,-1 2,-2 3,-3 1,-1 1,-3 1,-5 0,-2 0,-4 -2,-6 -1,-1 -2,-2 -4,-3 0,0 0,0 0,0 -2,0 -4,0 -7,0 -3,0 -7,0 -10,0 z m -46,6 c 2,0 4,1 5,2 1,2 1,4 1,6 0,3 0,5 -1,7 -1,1 -3,2 -5,2 -2,0 -3,-1 -4,-2 -1,-2 -2,-4 -2,-6 0,-3 1,-5 2,-7 1,-1 2,-2 4,-2 z m -91.5,1 1.9,0 c 2.6,0 4.2,0 4.5,0 0.1,0 0.1,0 0.1,0 0.7,0 1,0 1.2,0 0.3,1 0.4,1 0.4,2 0,0 -0.1,1 -0.4,1 -0.3,0 -0.8,0 -1.5,0 -0.3,0 -1.7,1 -3.8,1 l -2.4,0 0,-4 z m 145.5,0 1,0 c 2,0 4,0 4,0 1,0 1,0 1,1 1,0 1,1 1,1 0,1 0,1 0,2 -1,0 -1,1 -2,1 0,0 -1,0 -3,0 l -2,0 z m -145.5,11 3.2,0 c 2.5,0 4.1,0 4.4,0 0.6,0 0.9,0 1.1,1 0.3,0 0.4,0 0.4,1 0,1 -0.1,1 -0.4,1 -0.3,1 -0.7,1 -1.3,1 l 0,0 c -0.3,0 -1.6,0 -3.5,0 l -3.9,0 z"
/>
</svg>
